<svg width="94" height="15" viewBox="0 0 94 15" fill="none" xmlns="http://www.w3.org/2000/svg">
<path fill-rule="evenodd" clip-rule="evenodd" d="M74.1044 4.16441C74.1044 5.23227 73.6499 5.89407 71.3874 5.89407H70.1368V1.61052H71.4656C73.7848 1.61052 74.1044 2.53151 74.1044 3.5268V4.16441ZM74.9035 0.896511C74.1223 0.29327 72.9657 0 71.3675 0H68.63C68.3919 0 68.1989 0.193433 68.1989 0.431984V11.629C68.1989 11.8675 68.3919 12.061 68.63 12.061H69.7054C69.9435 12.061 70.1365 11.8675 70.1365 11.629V7.50442H71.3675C72.961 7.50442 74.1146 7.22814 74.894 6.65975C75.6556 6.10431 76.0417 5.27519 76.0417 4.19542V3.48006C76.0417 2.34913 75.6587 1.47998 74.9035 0.896511ZM92.9749 2.98428C92.8943 2.86832 92.7622 2.7991 92.6211 2.7991H91.5456C91.3622 2.7991 91.1987 2.91545 91.1385 3.08911L89.0081 9.22299L86.7088 3.07941C86.6457 2.91084 86.4849 2.7991 86.3052 2.7991H85.2493C85.1069 2.7991 84.9738 2.86956 84.8934 2.98726C84.8131 3.10514 84.7959 3.25499 84.8477 3.38794L88.0591 11.6469L87.8894 12.2115C87.4943 13.3559 86.8545 13.4518 86.2857 13.4518C86.066 13.4518 85.7899 13.4449 85.6035 13.3911C85.4734 13.3533 85.3332 13.3792 85.2248 13.4608C85.1166 13.5424 85.0529 13.6703 85.0529 13.806V14.4903C85.0529 14.6864 85.1846 14.8578 85.3738 14.908C85.6141 14.9717 85.9074 15 86.3248 15C87.5699 15 88.8265 14.7212 89.5839 12.6964L93.0253 3.38103C93.0743 3.24856 93.0555 3.10034 92.9749 2.98428ZM82.1013 10.1339C81.4671 10.4242 80.6072 10.606 79.8339 10.606C78.6259 10.606 78.5247 10.1145 78.5247 9.65391V9.15627C78.5247 8.64307 78.656 8.14197 80.225 8.14197H82.1013V10.1339ZM83.1277 3.27541C82.5843 2.85015 81.7627 2.64347 80.6161 2.64347C79.5101 2.64347 78.701 2.83681 78.1422 3.23452C77.5385 3.6643 77.2324 4.32754 77.2324 5.206V5.62589C77.2324 5.86444 77.4254 6.05787 77.6635 6.05787H78.6216C78.8597 6.05787 79.0527 5.86444 79.0527 5.62589V5.2371C79.0527 4.6448 79.1621 4.1917 80.5379 4.1917C81.9817 4.1917 82.1013 4.68618 82.1013 5.2371V6.60908H80.2054C77.2956 6.60908 76.6849 8.01111 76.6849 9.18716V9.65371C76.6849 10.4661 76.9515 11.095 77.4773 11.5229C77.9793 11.9314 78.713 12.1385 79.6579 12.1385C80.5653 12.1385 81.5285 11.9631 82.3296 11.6595L82.3718 11.8087C82.4244 11.9947 82.5938 12.1229 82.7866 12.1229H83.51C83.7481 12.1229 83.9411 11.9295 83.9411 11.6909V5.206C83.9411 4.33531 83.6751 3.70375 83.1277 3.27541ZM62.8035 3.03669H61.7281C61.6455 3.03669 61.5719 3.08911 61.5448 3.16715L59.1988 9.92183L56.6693 3.16283C56.6409 3.087 56.5684 3.03669 56.4876 3.03669H55.4317C55.3676 3.03669 55.3077 3.06837 55.2716 3.12146C55.2354 3.17435 55.2277 3.24184 55.2509 3.30164L58.4921 11.637L58.2974 12.2845C57.8729 13.5192 57.1674 13.6894 56.468 13.6894C56.2328 13.6894 55.9351 13.6814 55.7201 13.6193C55.6617 13.6022 55.5985 13.6139 55.5498 13.6507C55.501 13.6874 55.4724 13.745 55.4724 13.806V14.4903C55.4724 14.5785 55.5317 14.6557 55.6168 14.6783C55.8365 14.7365 56.1111 14.7624 56.5072 14.7624C57.5876 14.7624 58.8023 14.5966 59.544 12.6139L62.9854 3.29857C63.0075 3.23896 62.999 3.17224 62.9627 3.12002C62.9264 3.0678 62.8669 3.03669 62.8035 3.03669ZM51.2859 2.88122C50.3527 2.88122 49.3703 3.14617 48.3637 3.66896C47.9058 3.15289 47.163 2.88122 46.202 2.88122C45.301 2.88122 44.4282 3.19186 43.795 3.49214L43.7123 3.1261C43.6923 3.0374 43.6138 2.97453 43.5231 2.97453H42.7997C42.6926 2.97453 42.6057 3.06159 42.6057 3.16892V11.6289C42.6057 11.7363 42.6926 11.8233 42.7997 11.8233H43.7773C43.8845 11.8233 43.9713 11.7363 43.9713 11.6289V4.55223C44.4422 4.26721 45.1755 3.95427 46.1238 3.95427C47.0853 3.95427 47.5527 4.4401 47.5527 5.43943V11.6289C47.5527 11.7363 47.6395 11.8233 47.7467 11.8233H48.7245C48.8316 11.8233 48.9184 11.7363 48.9184 11.6289V5.29947C48.9184 5.08722 48.8953 4.87314 48.8479 4.6488C49.6544 4.18783 50.4148 3.95427 51.1099 3.95427C52.0715 3.95427 52.539 4.4401 52.539 5.43943V11.6289C52.539 11.7363 52.6258 11.8233 52.733 11.8233H53.7106C53.8178 11.8233 53.9046 11.7363 53.9046 11.6289V5.29947C53.9046 3.78522 52.9257 2.88122 51.2859 2.88122ZM13.1928 0.237354H12.2152C12.108 0.237354 12.0212 0.324424 12.0212 0.431747V11.6287C12.0212 11.7362 12.108 11.8231 12.2152 11.8231H13.1928C13.3 11.8231 13.3868 11.7362 13.3868 11.6287V0.431747C13.3868 0.324424 13.3 0.237354 13.1928 0.237354ZM2.83752 7.8579L4.9655 2.05147L7.11073 7.8579H2.83752ZM5.73317 0.363012C5.70462 0.287367 5.63239 0.237354 5.55172 0.237354H4.41756C4.3369 0.237354 4.26457 0.287367 4.23612 0.363012L0.0125308 11.56C-0.00998198 11.6197 -0.00183923 11.6868 0.0343728 11.7393C0.0705848 11.7918 0.130268 11.8231 0.193974 11.8231H1.24987C1.3312 11.8231 1.40392 11.7723 1.43198 11.6958L2.42168 8.99279H7.52806L8.51766 11.6958C8.54573 11.7723 8.61844 11.8231 8.69987 11.8231H9.77531C9.83902 11.8231 9.8987 11.7918 9.93491 11.7393C9.97112 11.6868 9.97927 11.6197 9.95675 11.56L5.73317 0.363012ZM34.8595 5.67291C34.8595 4.45231 35.4548 3.95448 36.9142 3.95448C38.3814 3.95448 39.1254 4.53266 39.1254 5.67291V6.94035H34.8595V5.67291ZM40.4914 9.35837V8.82963C40.4914 8.7223 40.4046 8.63523 40.2974 8.63523H39.3198C39.2126 8.63523 39.1258 8.7223 39.1258 8.82963V9.18731C39.1258 10.3276 38.3818 10.9057 36.9147 10.9057C35.4553 10.9057 34.86 10.4079 34.86 9.18731V7.98207H40.2974C40.4046 7.98207 40.4914 7.8951 40.4914 7.78768V5.50163C40.4914 3.86076 39.1544 2.88122 36.9147 2.88122C35.8506 2.88122 35.0096 3.10825 34.415 3.55588C33.8127 4.00937 33.4943 4.6822 33.4943 5.50163V9.35837C33.4943 10.1779 33.8127 10.8506 34.415 11.3041C35.0096 11.7518 35.8505 11.9788 36.9147 11.9788C39.1544 11.9788 40.4914 10.9992 40.4914 9.35837ZM19.1599 2.88122C16.866 2.88122 15.6027 3.76218 15.6027 5.36167V9.49833C15.6027 11.0979 16.866 11.9788 19.1599 11.9788C21.3336 11.9788 22.5803 11.0747 22.5803 9.49833V8.4875C22.5803 8.38017 22.4935 8.2931 22.3863 8.2931H21.4282C21.3211 8.2931 21.2342 8.38017 21.2342 8.4875V9.32727C21.2342 10.6872 19.9346 10.8902 19.1599 10.8902C17.6852 10.8902 16.9683 10.379 16.9683 9.32727V5.53273C16.9683 4.43722 17.6238 3.96981 19.1599 3.96981C20.5557 3.96981 21.2342 4.48109 21.2342 5.53273V6.52802C21.2342 6.63544 21.3211 6.72241 21.4282 6.72241H22.3863C22.4935 6.72241 22.5803 6.63544 22.5803 6.52802V5.36167C22.5803 3.78531 21.3336 2.88122 19.1599 2.88122ZM28.7217 2.88109C27.727 2.88109 26.7664 3.20508 26.0608 3.497V0.431747C26.0608 0.324424 25.974 0.237354 25.8668 0.237354H24.8892C24.782 0.237354 24.6952 0.324424 24.6952 0.431747V11.6287C24.6952 11.7362 24.782 11.8231 24.8892 11.8231H25.8668C25.974 11.8231 26.0608 11.7362 26.0608 11.6287V4.66057C26.5732 4.4226 27.6384 3.98524 28.5458 3.98524C29.494 3.98524 29.9356 4.41271 29.9356 5.33043V11.6287C29.9356 11.7362 30.0224 11.8231 30.1296 11.8231H31.1072C31.2144 11.8231 31.3013 11.7362 31.3013 11.6287V5.15937C31.3013 3.69024 30.3852 2.88109 28.7217 2.88109Z" fill="white"/>
<path fill-rule="evenodd" clip-rule="evenodd" d="M74.1044 4.16441C74.1044 5.23227 73.6499 5.89407 71.3874 5.89407H70.1368V1.61052H71.4656C73.7848 1.61052 74.1044 2.53151 74.1044 3.5268V4.16441ZM74.9035 0.896511C74.1223 0.29327 72.9657 0 71.3675 0H68.63C68.3919 0 68.1989 0.193433 68.1989 0.431984V11.629C68.1989 11.8675 68.3919 12.061 68.63 12.061H69.7054C69.9435 12.061 70.1365 11.8675 70.1365 11.629V7.50442H71.3675C72.961 7.50442 74.1146 7.22814 74.894 6.65975C75.6556 6.10431 76.0417 5.27519 76.0417 4.19542V3.48006C76.0417 2.34913 75.6587 1.47998 74.9035 0.896511ZM92.9749 2.98428C92.8943 2.86832 92.7622 2.7991 92.6211 2.7991H91.5456C91.3622 2.7991 91.1987 2.91545 91.1385 3.08911L89.0081 9.22299L86.7088 3.07941C86.6457 2.91084 86.4849 2.7991 86.3052 2.7991H85.2493C85.1069 2.7991 84.9738 2.86956 84.8934 2.98726C84.8131 3.10514 84.7959 3.25499 84.8477 3.38794L88.0591 11.6469L87.8894 12.2115C87.4943 13.3559 86.8545 13.4518 86.2857 13.4518C86.066 13.4518 85.7899 13.4449 85.6035 13.3911C85.4734 13.3533 85.3332 13.3792 85.2248 13.4608C85.1166 13.5424 85.0529 13.6703 85.0529 13.806V14.4903C85.0529 14.6864 85.1846 14.8578 85.3738 14.908C85.6141 14.9717 85.9074 15 86.3248 15C87.5699 15 88.8265 14.7212 89.5839 12.6964L93.0253 3.38103C93.0743 3.24856 93.0555 3.10034 92.9749 2.98428ZM82.1013 10.1339C81.4671 10.4242 80.6072 10.606 79.8339 10.606C78.6259 10.606 78.5247 10.1145 78.5247 9.65391V9.15627C78.5247 8.64307 78.656 8.14197 80.225 8.14197H82.1013V10.1339ZM83.1277 3.27541C82.5843 2.85015 81.7627 2.64347 80.6161 2.64347C79.5101 2.64347 78.701 2.83681 78.1422 3.23452C77.5385 3.6643 77.2324 4.32754 77.2324 5.206V5.62589C77.2324 5.86444 77.4254 6.05787 77.6635 6.05787H78.6216C78.8597 6.05787 79.0527 5.86444 79.0527 5.62589V5.2371C79.0527 4.6448 79.1621 4.1917 80.5379 4.1917C81.9817 4.1917 82.1013 4.68618 82.1013 5.2371V6.60908H80.2054C77.2956 6.60908 76.6849 8.01111 76.6849 9.18716V9.65371C76.6849 10.4661 76.9515 11.095 77.4773 11.5229C77.9793 11.9314 78.713 12.1385 79.6579 12.1385C80.5653 12.1385 81.5285 11.9631 82.3296 11.6595L82.3718 11.8087C82.4244 11.9947 82.5938 12.1229 82.7866 12.1229H83.51C83.7481 12.1229 83.9411 11.9295 83.9411 11.6909V5.206C83.9411 4.33531 83.6751 3.70375 83.1277 3.27541ZM62.8035 3.03669H61.7281C61.6455 3.03669 61.5719 3.08911 61.5448 3.16715L59.1988 9.92183L56.6693 3.16283C56.6409 3.087 56.5684 3.03669 56.4876 3.03669H55.4317C55.3676 3.03669 55.3077 3.06837 55.2716 3.12146C55.2354 3.17435 55.2277 3.24184 55.2509 3.30164L58.4921 11.637L58.2974 12.2845C57.8729 13.5192 57.1674 13.6894 56.468 13.6894C56.2328 13.6894 55.9351 13.6814 55.7201 13.6193C55.6617 13.6022 55.5985 13.6139 55.5498 13.6507C55.501 13.6874 55.4724 13.745 55.4724 13.806V14.4903C55.4724 14.5785 55.5317 14.6557 55.6168 14.6783C55.8365 14.7365 56.1111 14.7624 56.5072 14.7624C57.5876 14.7624 58.8023 14.5966 59.544 12.6139L62.9854 3.29857C63.0075 3.23896 62.999 3.17224 62.9627 3.12002C62.9264 3.0678 62.8669 3.03669 62.8035 3.03669ZM51.2859 2.88122C50.3527 2.88122 49.3703 3.14617 48.3637 3.66896C47.9058 3.15289 47.163 2.88122 46.202 2.88122C45.301 2.88122 44.4282 3.19186 43.795 3.49214L43.7123 3.1261C43.6923 3.0374 43.6138 2.97453 43.5231 2.97453H42.7997C42.6926 2.97453 42.6057 3.06159 42.6057 3.16892V11.6289C42.6057 11.7363 42.6926 11.8233 42.7997 11.8233H43.7773C43.8845 11.8233 43.9713 11.7363 43.9713 11.6289V4.55223C44.4422 4.26721 45.1755 3.95427 46.1238 3.95427C47.0853 3.95427 47.5527 4.4401 47.5527 5.43943V11.6289C47.5527 11.7363 47.6395 11.8233 47.7467 11.8233H48.7245C48.8316 11.8233 48.9184 11.7363 48.9184 11.6289V5.29947C48.9184 5.08722 48.8953 4.87314 48.8479 4.6488C49.6544 4.18783 50.4148 3.95427 51.1099 3.95427C52.0715 3.95427 52.539 4.4401 52.539 5.43943V11.6289C52.539 11.7363 52.6258 11.8233 52.733 11.8233H53.7106C53.8178 11.8233 53.9046 11.7363 53.9046 11.6289V5.29947C53.9046 3.78522 52.9257 2.88122 51.2859 2.88122ZM13.1928 0.237354H12.2152C12.108 0.237354 12.0212 0.324424 12.0212 0.431747V11.6287C12.0212 11.7362 12.108 11.8231 12.2152 11.8231H13.1928C13.3 11.8231 13.3868 11.7362 13.3868 11.6287V0.431747C13.3868 0.324424 13.3 0.237354 13.1928 0.237354ZM2.83752 7.8579L4.9655 2.05147L7.11073 7.8579H2.83752ZM5.73317 0.363012C5.70462 0.287367 5.63239 0.237354 5.55172 0.237354H4.41756C4.3369 0.237354 4.26457 0.287367 4.23612 0.363012L0.0125308 11.56C-0.00998198 11.6197 -0.00183923 11.6868 0.0343728 11.7393C0.0705848 11.7918 0.130268 11.8231 0.193974 11.8231H1.24987C1.3312 11.8231 1.40392 11.7723 1.43198 11.6958L2.42168 8.99279H7.52806L8.51766 11.6958C8.54573 11.7723 8.61844 11.8231 8.69987 11.8231H9.77531C9.83902 11.8231 9.8987 11.7918 9.93491 11.7393C9.97112 11.6868 9.97927 11.6197 9.95675 11.56L5.73317 0.363012ZM34.8595 5.67291C34.8595 4.45231 35.4548 3.95448 36.9142 3.95448C38.3814 3.95448 39.1254 4.53266 39.1254 5.67291V6.94035H34.8595V5.67291ZM40.4914 9.35837V8.82963C40.4914 8.7223 40.4046 8.63523 40.2974 8.63523H39.3198C39.2126 8.63523 39.1258 8.7223 39.1258 8.82963V9.18731C39.1258 10.3276 38.3818 10.9057 36.9147 10.9057C35.4553 10.9057 34.86 10.4079 34.86 9.18731V7.98207H40.2974C40.4046 7.98207 40.4914 7.8951 40.4914 7.78768V5.50163C40.4914 3.86076 39.1544 2.88122 36.9147 2.88122C35.8506 2.88122 35.0096 3.10825 34.415 3.55588C33.8127 4.00937 33.4943 4.6822 33.4943 5.50163V9.35837C33.4943 10.1779 33.8127 10.8506 34.415 11.3041C35.0096 11.7518 35.8505 11.9788 36.9147 11.9788C39.1544 11.9788 40.4914 10.9992 40.4914 9.35837ZM19.1599 2.88122C16.866 2.88122 15.6027 3.76218 15.6027 5.36167V9.49833C15.6027 11.0979 16.866 11.9788 19.1599 11.9788C21.3336 11.9788 22.5803 11.0747 22.5803 9.49833V8.4875C22.5803 8.38017 22.4935 8.2931 22.3863 8.2931H21.4282C21.3211 8.2931 21.2342 8.38017 21.2342 8.4875V9.32727C21.2342 10.6872 19.9346 10.8902 19.1599 10.8902C17.6852 10.8902 16.9683 10.379 16.9683 9.32727V5.53273C16.9683 4.43722 17.6238 3.96981 19.1599 3.96981C20.5557 3.96981 21.2342 4.48109 21.2342 5.53273V6.52802C21.2342 6.63544 21.3211 6.72241 21.4282 6.72241H22.3863C22.4935 6.72241 22.5803 6.63544 22.5803 6.52802V5.36167C22.5803 3.78531 21.3336 2.88122 19.1599 2.88122ZM28.7217 2.88109C27.727 2.88109 26.7664 3.20508 26.0608 3.497V0.431747C26.0608 0.324424 25.974 0.237354 25.8668 0.237354H24.8892C24.782 0.237354 24.6952 0.324424 24.6952 0.431747V11.6287C24.6952 11.7362 24.782 11.8231 24.8892 11.8231H25.8668C25.974 11.8231 26.0608 11.7362 26.0608 11.6287V4.66057C26.5732 4.4226 27.6384 3.98524 28.5458 3.98524C29.494 3.98524 29.9356 4.41271 29.9356 5.33043V11.6287C29.9356 11.7362 30.0224 11.8231 30.1296 11.8231H31.1072C31.2144 11.8231 31.3013 11.7362 31.3013 11.6287V5.15937C31.3013 3.69024 30.3852 2.88109 28.7217 2.88109Z" fill="#063376"/>
</svg>
