<svg width="20" height="20" viewBox="0 0 20 20" fill="none" xmlns="http://www.w3.org/2000/svg">
<path d="M4.77273 10.8777H13.9377L10.3291 14.2091C10.2621 14.2695 10.2078 14.3426 10.1693 14.4242C10.1308 14.5057 10.1089 14.5941 10.1048 14.6842C10.1007 14.7743 10.1145 14.8643 10.1454 14.9491C10.1764 15.0338 10.2238 15.1115 10.285 15.1778C10.3461 15.244 10.4199 15.2975 10.5019 15.3351C10.5838 15.3727 10.6725 15.3936 10.7626 15.3967C10.8527 15.3997 10.9426 15.3849 11.027 15.353C11.1113 15.3211 11.1885 15.2728 11.2541 15.2109L16.1445 10.6968C16.2136 10.6329 16.2686 10.5554 16.3063 10.4692C16.3439 10.383 16.3634 10.29 16.3634 10.1959C16.3634 10.1018 16.3439 10.0088 16.3063 9.9226C16.2686 9.8364 16.2136 9.75891 16.1445 9.695L11.2541 5.18091C11.1884 5.12002 11.1113 5.07269 11.0272 5.04165C10.9432 5.01061 10.8539 4.99645 10.7643 5C10.6748 5.00355 10.5869 5.02473 10.5056 5.06232C10.4242 5.09992 10.3511 5.15319 10.2905 5.21909C10.2297 5.28489 10.1825 5.36202 10.1516 5.44606C10.1206 5.53011 10.1066 5.61943 10.1101 5.70891C10.1137 5.7984 10.1349 5.8863 10.1725 5.9676C10.2101 6.0489 10.2633 6.122 10.3291 6.18273L13.9377 9.51409H4.77273C4.68318 9.51407 4.59451 9.5317 4.51177 9.56596C4.42904 9.60021 4.35386 9.65043 4.29053 9.71375C4.22721 9.77706 4.17698 9.85223 4.1427 9.93496C4.10843 10.0177 4.09079 10.1064 4.09079 10.1959C4.09079 10.2855 4.10843 10.3741 4.1427 10.4569C4.17698 10.5396 4.22721 10.6148 4.29053 10.6781C4.35386 10.7414 4.42904 10.7916 4.51177 10.8259C4.59451 10.8601 4.68318 10.8777 4.77273 10.8777Z" fill="white"/>
<path d="M4.77273 10.8777H13.9377L10.3291 14.2091C10.2621 14.2695 10.2078 14.3426 10.1693 14.4242C10.1308 14.5057 10.1089 14.5941 10.1048 14.6842C10.1007 14.7743 10.1145 14.8643 10.1454 14.9491C10.1764 15.0338 10.2238 15.1115 10.285 15.1778C10.3461 15.244 10.4199 15.2975 10.5019 15.3351C10.5838 15.3727 10.6725 15.3936 10.7626 15.3967C10.8527 15.3997 10.9426 15.3849 11.027 15.353C11.1113 15.3211 11.1885 15.2728 11.2541 15.2109L16.1445 10.6968C16.2136 10.6329 16.2686 10.5554 16.3063 10.4692C16.3439 10.383 16.3634 10.29 16.3634 10.1959C16.3634 10.1018 16.3439 10.0088 16.3063 9.9226C16.2686 9.8364 16.2136 9.75891 16.1445 9.695L11.2541 5.18091C11.1884 5.12002 11.1113 5.07269 11.0272 5.04165C10.9432 5.01061 10.8539 4.99645 10.7643 5C10.6748 5.00355 10.5869 5.02473 10.5056 5.06232C10.4242 5.09992 10.3511 5.15319 10.2905 5.21909C10.2297 5.28489 10.1825 5.36202 10.1516 5.44606C10.1206 5.53011 10.1066 5.61943 10.1101 5.70891C10.1137 5.7984 10.1349 5.8863 10.1725 5.9676C10.2101 6.0489 10.2633 6.122 10.3291 6.18273L13.9377 9.51409H4.77273C4.68318 9.51407 4.59451 9.5317 4.51177 9.56596C4.42904 9.60021 4.35386 9.65043 4.29053 9.71375C4.22721 9.77706 4.17698 9.85223 4.1427 9.93496C4.10843 10.0177 4.09079 10.1064 4.09079 10.1959C4.09079 10.2855 4.10843 10.3741 4.1427 10.4569C4.17698 10.5396 4.22721 10.6148 4.29053 10.6781C4.35386 10.7414 4.42904 10.7916 4.51177 10.8259C4.59451 10.8601 4.68318 10.8777 4.77273 10.8777" stroke="white" stroke-width="0.5"/>
</svg>
