<?xml version="1.0" encoding="UTF-8"?>
<svg width="14px" height="14px" viewBox="0 0 14 14" version="1.1" xmlns="http://www.w3.org/2000/svg" xmlns:xlink="http://www.w3.org/1999/xlink">
    <title>编组 3</title>
    <g id="页面-1" stroke="none" stroke-width="1" fill="none" fill-rule="evenodd">
        <g id="Email-Address" transform="translate(-1118.000000, -654.000000)" fill="#FF0000" fill-rule="nonzero">
            <g id="编组-3" transform="translate(1118.000000, 654.000000)">
                <g id="编组" transform="translate(1.000000, 0.000000)">
                    <path d="M12,-4.18153723e-16 L12,1.1769981 L10.1265,1.1769981 L10.1265,4.65620447 L6.97537501,6.83482794 L10.1265,9.01345141 L10.1265,12.8230019 L12,12.8230019 L12,14 L7.99360577e-16,14 L7.99360577e-16,12.8230019 L1.873125,12.8230019 L1.873125,9.01345141 L5.02462501,6.83482794 L1.873125,4.65620447 L1.873125,1.1769981 L7.99360577e-16,1.1769981 L7.99360577e-16,-4.18153723e-16 L12,-4.18153723e-16 Z M5.999625,7.5712364 L2.998125,9.64628405 L2.998125,12.8230019 L9.00150001,12.8230019 L9.001125,9.64628405 L5.999625,7.5712364 Z M7.878375,10.3968165 L7.881375,11.5738146 L4.122,11.5836229 L4.11900001,10.4066248 L7.878375,10.3968165 Z M9.001875,1.1769981 L2.998125,1.1769981 L2.99850001,4.02337182 L6.00000001,6.09841946 L9.00150001,4.02337182 L9.00150001,1.1769981 L9.001875,1.1769981 Z" id="形状"></path>
                </g>
            </g>
        </g>
    </g>
</svg>