<svg width="20" height="20" viewBox="0 0 20 20" fill="none" xmlns="http://www.w3.org/2000/svg">
<path d="M9.12227 4.77275L9.12227 13.9378L5.79091 10.3291C5.73048 10.2622 5.65737 10.2079 5.57582 10.1694C5.49426 10.1309 5.40587 10.1089 5.31578 10.1048C5.22568 10.1007 5.13567 10.1145 5.05095 10.1455C4.96623 10.1764 4.88848 10.2238 4.82222 10.285C4.75596 10.3462 4.70249 10.4199 4.66492 10.5019C4.62734 10.5839 4.60641 10.6725 4.60333 10.7626C4.60025 10.8528 4.61508 10.9426 4.64697 11.027C4.67885 11.1114 4.72716 11.1886 4.78909 11.2541L9.30318 16.1446C9.3671 16.2136 9.44458 16.2686 9.53078 16.3063C9.61698 16.344 9.71003 16.3634 9.80409 16.3634C9.89815 16.3634 9.9912 16.344 10.0774 16.3063C10.1636 16.2686 10.2411 16.2136 10.305 16.1446L14.8191 11.2541C14.88 11.1884 14.9273 11.1113 14.9583 11.0273C14.9894 10.9432 15.0035 10.8539 15 10.7644C14.9965 10.6749 14.9753 10.5869 14.9377 10.5056C14.9001 10.4243 14.8468 10.3512 14.7809 10.2905C14.7151 10.2297 14.638 10.1825 14.5539 10.1516C14.4699 10.1207 14.3806 10.1066 14.2911 10.1102C14.2016 10.1138 14.1137 10.1349 14.0324 10.1725C13.9511 10.2101 13.878 10.2633 13.8173 10.3291L10.4859 13.9378L10.4859 4.77275C10.4859 4.68321 10.4683 4.59453 10.434 4.5118C10.3998 4.42906 10.3496 4.35389 10.2862 4.29056C10.2229 4.22724 10.1478 4.177 10.065 4.14273C9.98231 4.10846 9.89364 4.09082 9.80409 4.09082C9.71454 4.09082 9.62587 4.10846 9.54314 4.14273C9.46041 4.177 9.38525 4.22724 9.32193 4.29056C9.25862 4.35389 9.2084 4.42906 9.17414 4.5118C9.13988 4.59453 9.12226 4.68321 9.12227 4.77275" fill="white"/>
<path d="M9.12227 4.77275L9.12227 13.9378L5.79091 10.3291C5.73048 10.2622 5.65737 10.2079 5.57582 10.1694C5.49426 10.1309 5.40587 10.1089 5.31578 10.1048C5.22568 10.1007 5.13567 10.1145 5.05095 10.1455C4.96623 10.1764 4.88848 10.2238 4.82222 10.285C4.75596 10.3462 4.70249 10.4199 4.66492 10.5019C4.62734 10.5839 4.60641 10.6725 4.60333 10.7626C4.60025 10.8528 4.61508 10.9426 4.64697 11.027C4.67885 11.1114 4.72716 11.1886 4.78909 11.2541L9.30318 16.1446C9.3671 16.2136 9.44458 16.2686 9.53078 16.3063C9.61698 16.344 9.71003 16.3634 9.80409 16.3634C9.89815 16.3634 9.9912 16.344 10.0774 16.3063C10.1636 16.2686 10.2411 16.2136 10.305 16.1446L14.8191 11.2541C14.88 11.1884 14.9273 11.1113 14.9583 11.0273C14.9894 10.9432 15.0035 10.8539 15 10.7644C14.9965 10.6749 14.9753 10.5869 14.9377 10.5056C14.9001 10.4243 14.8468 10.3512 14.7809 10.2905C14.7151 10.2297 14.638 10.1825 14.5539 10.1516C14.4699 10.1207 14.3806 10.1066 14.2911 10.1102C14.2016 10.1138 14.1137 10.1349 14.0324 10.1725C13.9511 10.2101 13.878 10.2633 13.8173 10.3291L10.4859 13.9378L10.4859 4.77275C10.4859 4.68321 10.4683 4.59453 10.434 4.5118C10.3998 4.42906 10.3496 4.35389 10.2862 4.29056C10.2229 4.22724 10.1478 4.177 10.065 4.14273C9.98231 4.10846 9.89364 4.09082 9.80409 4.09082C9.71454 4.09082 9.62587 4.10846 9.54314 4.14273C9.46041 4.177 9.38525 4.22724 9.32193 4.29056C9.25862 4.35389 9.2084 4.42906 9.17414 4.5118C9.13988 4.59453 9.12226 4.68321 9.12227 4.77275" stroke="white" stroke-width="0.5"/>
</svg>
