<?xml version="1.0" encoding="UTF-8"?>
<svg width="106px" height="20px" viewBox="0 0 106 20" version="1.1" xmlns="http://www.w3.org/2000/svg" xmlns:xlink="http://www.w3.org/1999/xlink">
    <title>编组</title>
    <defs>
        <polygon id="path-1" points="0 0 79.2012931 0 79.2012931 12.4058691 0 12.4058691"></polygon>
        <polygon id="path-3" points="0 0 23.5783799 0 23.5783799 20 0 20"></polygon>
    </defs>
    <g id="页面-1" stroke="none" stroke-width="1" fill="none" fill-rule="evenodd">
        <g id="iPhone-11-Pro备份" transform="translate(-135.000000, -49.000000)">
            <g id="编组" transform="translate(135.000000, 49.000000)">
                <g transform="translate(26.798707, 6.233144)">
                    <mask id="mask-2" fill="white">
                        <use xlink:href="#path-1"></use>
                    </mask>
                    <g id="Clip-2"></g>
                    <path d="M63.0732144,3.44408991 C63.0732144,4.32726317 62.6863156,4.87460194 60.7606277,4.87460194 L59.6962279,4.87460194 L59.6962279,1.33190531 L60.8271629,1.33190531 C62.8011214,1.33190531 63.0732144,2.09360652 63.0732144,2.9167583 L63.0732144,3.44408991 Z M63.7535693,0.74145587 C63.0887067,0.242547134 62.1042959,0 60.7439939,0 L58.413958,0 C58.2113355,0 58.047036,0.159977897 58.047036,0.357270737 L58.047036,9.61772825 C58.047036,9.81502109 58.2113355,9.97499899 58.413958,9.97499899 L59.3293059,9.97499899 C59.5319284,9.97499899 59.6962279,9.81502109 59.6962279,9.61772825 L59.6962279,6.20650725 L60.7439939,6.20650725 C62.1003005,6.20650725 63.0821021,5.97801276 63.745497,5.50792387 C64.3937257,5.04855309 64.7224063,4.36283146 64.7224063,3.4698134 L64.7224063,2.87817306 C64.7224063,1.94283827 64.3964165,1.22400955 63.7535693,0.74145587 L63.7535693,0.74145587 Z M79.1355081,2.46826443 C79.0669344,2.37235709 78.9544933,2.31511438 78.8343875,2.31511438 L77.9190395,2.31511438 C77.7628938,2.31511438 77.6237897,2.4113393 77.5725021,2.55496213 L75.7592554,7.62796842 L73.8022568,2.54694339 C73.7485231,2.40752841 73.6116205,2.31511438 73.4587363,2.31511438 L72.5600222,2.31511438 C72.4387748,2.31511438 72.3255183,2.37338921 72.2571077,2.47072563 C72.1886971,2.56822085 72.1741018,2.6921541 72.2181324,2.80211409 L74.9515379,9.63265423 L74.8070522,10.0995674 C74.4707886,11.0460967 73.9262764,11.1254108 73.4421025,11.1254108 C73.2551354,11.1254108 73.0201423,11.1196944 72.8614689,11.0751547 C72.75074,11.043953 72.6313681,11.0653893 72.5391484,11.1328738 C72.4470102,11.2003582 72.3927873,11.3061104 72.3927873,11.4183728 L72.3927873,11.9842896 C72.3927873,12.1464905 72.5049023,12.2882079 72.6659403,12.3297307 C72.8705197,12.382448 73.1201081,12.4058691 73.4753701,12.4058691 C74.5351222,12.4058691 75.6046589,12.175231 76.2493,10.5006633 L79.1784787,2.79639776 C79.2201447,2.68683473 79.2041633,2.56425117 79.1355081,2.46826443 L79.1355081,2.46826443 Z M69.8799427,8.38125393 C69.3401598,8.62133986 68.6082728,8.77171114 67.9500963,8.77171114 C66.9218995,8.77171114 66.8357952,8.36521644 66.8357952,7.98428644 L66.8357952,7.57271055 C66.8357952,7.14827291 66.9475025,6.73383886 68.2829353,6.73383886 L69.8799427,6.73383886 L69.8799427,8.38125393 Z M70.7535431,2.7091443 C70.2910584,2.35743111 69.5917867,2.18649691 68.6158558,2.18649691 C67.6744972,2.18649691 66.9858255,2.34639542 66.5102131,2.67532268 C65.9963593,3.03076736 65.7358447,3.57929703 65.7358447,4.30582693 L65.7358447,4.65309408 C65.7358447,4.85038692 65.9001442,5.01036482 66.1027666,5.01036482 L66.9182303,5.01036482 C67.1209343,5.01036482 67.2851522,4.85038692 67.2851522,4.65309408 L67.2851522,4.33155042 C67.2851522,3.84169254 67.3782689,3.46695524 68.5492391,3.46695524 C69.778183,3.46695524 69.8799427,3.87591114 69.8799427,4.33155042 L69.8799427,5.46624228 L68.2663015,5.46624228 C65.7896599,5.46624228 65.2698538,6.62578431 65.2698538,7.59843404 L65.2698538,7.98428644 C65.2698538,8.65619361 65.4967747,9.17630041 65.9442564,9.53015722 C66.3715981,9.86805595 66.9960177,10.0393077 67.8003107,10.0393077 C68.572559,10.0393077 69.3924258,9.8942558 70.0742483,9.64313417 L70.1102066,9.76659106 C70.1549711,9.92037626 70.2991307,10.026446 70.4631855,10.026446 L71.0789621,10.026446 C71.2815846,10.026446 71.445884,9.86646808 71.445884,9.66917524 L71.445884,4.30582693 C71.445884,3.58572791 71.2194524,3.06339809 70.7535431,2.7091443 L70.7535431,2.7091443 Z M53.4546409,2.51161328 L52.539293,2.51161328 C52.4690071,2.51161328 52.4063857,2.55496213 52.3833104,2.61950905 L50.3865212,8.20595308 L48.2335862,2.61593634 C48.2093694,2.55321548 48.1477265,2.51161328 48.0789083,2.51161328 L47.1801941,2.51161328 C47.125645,2.51161328 47.0746837,2.53781314 47.0439437,2.58171774 C47.0131223,2.62546356 47.0065992,2.68127719 47.0263315,2.73073934 L49.7850138,9.6244767 L49.6193281,10.1599858 C49.2580323,11.181145 48.6575034,11.3219097 48.0622745,11.3219097 C47.8620166,11.3219097 47.6086774,11.31532 47.4257056,11.2639524 C47.3759673,11.2498204 47.3221521,11.2595064 47.2807307,11.2899141 C47.2392278,11.3202424 47.2148478,11.3678785 47.2148478,11.4183728 L47.2148478,11.9842896 C47.2148478,12.0572522 47.26532,12.1210846 47.3377259,12.1397421 C47.5247746,12.1879339 47.7584631,12.2093702 48.0956236,12.2093702 C49.01513,12.2093702 50.0490345,12.0721782 50.6803033,10.4323849 L53.609482,2.72819874 C53.6282358,2.67889538 53.6209789,2.6237169 53.5901575,2.58052684 C53.5592545,2.53733678 53.5086192,2.51161328 53.4546409,2.51161328 L53.4546409,2.51161328 Z M43.6518726,2.38299582 C42.8576089,2.38299582 42.0214346,2.60212187 41.1646311,3.03449886 C40.77496,2.60767942 40.1427127,2.38299582 39.3247213,2.38299582 C38.5578545,2.38299582 37.8149598,2.63991318 37.2760738,2.88825603 L37.2057063,2.58552863 C37.1886648,2.51216904 37.1218035,2.4601663 37.0446684,2.4601663 L36.4288918,2.4601663 C36.3377321,2.4601663 36.2637769,2.5321762 36.2637769,2.62093813 L36.2637769,9.61772825 C36.2637769,9.70656957 36.3377321,9.77850008 36.4288918,9.77850008 L37.2609892,9.77850008 C37.3522305,9.77850008 37.4261041,9.70656957 37.4261041,9.61772825 L37.4261041,3.76499842 C37.826946,3.52927913 38.4510394,3.27045633 39.2581862,3.27045633 C40.0765852,3.27045633 40.4744101,3.67226682 40.4744101,4.49875313 L40.4744101,9.61772825 C40.4744101,9.70656957 40.5482837,9.77850008 40.639525,9.77850008 L41.471704,9.77850008 C41.5628637,9.77850008 41.6368188,9.70656957 41.6368188,9.61772825 L41.6368188,4.38299582 C41.6368188,4.20745838 41.6170866,4.03041089 41.5768067,3.84486828 C42.2631954,3.46362071 42.9104457,3.27045633 43.502087,3.27045633 C44.320486,3.27045633 44.7183924,3.67226682 44.7183924,4.49875313 L44.7183924,9.61772825 C44.7183924,9.70656957 44.7922661,9.77850008 44.8835073,9.77850008 L45.7156048,9.77850008 C45.806846,9.77850008 45.8807196,9.70656957 45.8807196,9.61772825 L45.8807196,4.38299582 C45.8807196,3.13064438 45.0475622,2.38299582 43.6518726,2.38299582 L43.6518726,2.38299582 Z M11.2290186,0.196498906 L10.3969211,0.196498906 C10.3056799,0.196498906 10.2318062,0.268508808 10.2318062,0.357270737 L10.2318062,9.61772825 C10.2318062,9.70656957 10.3056799,9.77850008 10.3969211,9.77850008 L11.2290186,9.77850008 C11.3202598,9.77850008 11.3941334,9.70656957 11.3941334,9.61772825 L11.3941334,0.357270737 C11.3941334,0.268508808 11.3202598,0.196498906 11.2290186,0.196498906 L11.2290186,0.196498906 Z M2.4153903,6.49875471 L4.22659857,1.69655964 L6.05248372,6.49875471 L2.4153903,6.49875471 Z M4.87971964,0.300424993 C4.85542125,0.237862918 4.79394144,0.196498906 4.72528627,0.196498906 L3.75995539,0.196498906 C3.69130022,0.196498906 3.62973887,0.237862918 3.60552202,0.300424993 L0.010665388,9.56088251 C-0.00849609145,9.61026526 -0.00156534355,9.66576132 0.0292561001,9.70918956 C0.0600775437,9.7526178 0.110875849,9.77850008 0.165098759,9.77850008 L1.06381292,9.77850008 C1.13303886,9.77850008 1.19492636,9.73642153 1.21881706,9.67314491 L2.06118831,7.43766221 L6.40741955,7.43766221 L7.24970927,9.67314491 C7.27359996,9.73642153 7.33548747,9.77850008 7.40479494,9.77850008 L8.3201429,9.77850008 C8.37436581,9.77850008 8.42516411,9.7526178 8.45598556,9.70918956 C8.486807,9.66576132 8.49373775,9.61026526 8.47457627,9.56088251 L4.87971964,0.300424993 Z M29.6707603,4.69167932 C29.6707603,3.68219101 30.1774387,3.27045633 31.4195918,3.27045633 C32.6683495,3.27045633 33.3015753,3.74864336 33.3015753,4.69167932 L33.3015753,5.73991167 L29.6707603,5.73991167 L29.6707603,4.69167932 Z M34.4639025,7.73991325 L34.4639025,7.30261387 C34.4639025,7.21385194 34.3900288,7.14184204 34.2987876,7.14184204 L33.4666901,7.14184204 C33.3754489,7.14184204 33.3015753,7.21385194 33.3015753,7.30261387 L33.3015753,7.59843404 C33.3015753,8.5415494 32.6683495,9.01965704 31.4195918,9.01965704 C30.1774387,9.01965704 29.6707603,8.60792236 29.6707603,7.59843404 L29.6707603,6.60164869 L34.2987876,6.60164869 C34.3900288,6.60164869 34.4639025,6.52971818 34.4639025,6.44087685 L34.4639025,4.55020011 C34.4639025,3.19312706 33.3258736,2.38299582 31.4195918,2.38299582 C30.5139469,2.38299582 29.798123,2.57076144 29.2920153,2.94097332 C28.7793846,3.3160282 28.5083515,3.87249722 28.5083515,4.55020011 L28.5083515,7.73991325 C28.5083515,8.41769554 28.7793846,8.97408517 29.2920153,9.34914005 C29.798123,9.71943132 30.5138654,9.90711755 31.4195918,9.90711755 C33.3258736,9.90711755 34.4639025,9.0969863 34.4639025,7.73991325 L34.4639025,7.73991325 Z M16.3083599,2.38299582 C14.3559274,2.38299582 13.280683,3.11158994 13.280683,4.43444439 L13.280683,7.85566897 C13.280683,9.17860282 14.3559274,9.90711755 16.3083599,9.90711755 C18.1584619,9.90711755 19.2196001,9.15938959 19.2196001,7.85566897 L19.2196001,7.01965545 C19.2196001,6.93089352 19.145645,6.85888362 19.0544853,6.85888362 L18.2389401,6.85888362 C18.1477804,6.85888362 18.0738252,6.93089352 18.0738252,7.01965545 L18.0738252,7.71418976 C18.0738252,8.83887804 16.9676778,9.00679529 16.3083599,9.00679529 C15.0531606,9.00679529 14.4430102,8.58402492 14.4430102,7.71418976 L14.4430102,4.5759236 C14.4430102,3.66988501 15.0008946,3.28331808 16.3083599,3.28331808 C17.4963716,3.28331808 18.0738252,3.70616784 18.0738252,4.5759236 L18.0738252,5.39907538 C18.0738252,5.48791671 18.1477804,5.55984722 18.2389401,5.55984722 L19.0544853,5.55984722 C19.145645,5.55984722 19.2196001,5.48791671 19.2196001,5.39907538 L19.2196001,4.43444439 C19.2196001,3.13072377 18.1584619,2.38299582 16.3083599,2.38299582 L16.3083599,2.38299582 Z M24.446444,2.38299582 C23.5997513,2.38299582 22.7821676,2.65094887 22.1816387,2.8923845 L22.1816387,0.357270737 C22.1816387,0.268508808 22.1077651,0.196498906 22.0165238,0.196498906 L21.1844264,0.196498906 C21.0931851,0.196498906 21.0193115,0.268508808 21.0193115,0.357270737 L21.0193115,9.61772825 C21.0193115,9.70656957 21.0931851,9.77850008 21.1844264,9.77850008 L22.0165238,9.77850008 C22.1077651,9.77850008 22.1816387,9.70656957 22.1816387,9.61772825 L22.1816387,3.85471308 C22.6177051,3.6578966 23.52441,3.29617982 24.2966584,3.29617982 C25.1037236,3.29617982 25.4796147,3.64971907 25.4796147,4.4087209 L25.4796147,9.61772825 C25.4796147,9.70656957 25.5534883,9.77850008 25.6447296,9.77850008 L26.476827,9.77850008 C26.5680683,9.77850008 26.6420234,9.70656957 26.6420234,9.61772825 L26.6420234,4.26724169 C26.6420234,3.05220361 25.8622735,2.38299582 24.446444,2.38299582 L24.446444,2.38299582 Z" id="Fill-1" fill="#050F66" mask="url(#mask-2)"></path>
                </g>
                <g>
                    <mask id="mask-4" fill="white">
                        <use xlink:href="#path-3"></use>
                    </mask>
                    <g id="Clip-4"></g>
                    <path d="M8.90402968,16.6677914 C8.57738761,17.216718 8.40982659,18.0482855 8.40982659,18.7138412 C8.40982659,19.1835332 8.49071249,19.6139253 8.64188433,20.0000159 L15.1905442,20.0000159 L15.1905442,15.1662222 C14.4916802,14.7059781 13.6211782,14.4373105 12.6587827,14.4373105 C10.9877387,14.4373105 9.63925973,15.4324286 8.90402968,16.6677914 L8.90402968,16.6677914 Z M8.39881893,5.77706782 L8.39881893,13.6441695 L8.40721736,13.6441695 C9.00318014,13.068646 10.566023,12.338464 12.2055118,12.1858697 C13.3643329,12.1020302 14.4205789,12.2737583 15.1905442,12.5664821 L15.1905442,5.77706782 L11.7781701,0 L8.39881893,5.77706782 Z M17.6672673,9.96785357 L17.6672673,20.0000159 L23.5783799,20.0000159 L17.6672673,9.96785357 Z M5.91108812,20.0000159 L5.91108812,9.96785357 L-2.44614637e-05,20.0000159 L5.91108812,20.0000159 Z" id="Fill-3" fill="#050F66" mask="url(#mask-4)"></path>
                </g>
            </g>
        </g>
    </g>
</svg>