<svg width="159" height="162" viewBox="0 0 159 162" fill="none" xmlns="http://www.w3.org/2000/svg">
<path fill-rule="evenodd" clip-rule="evenodd" d="M43.3201 31.7192H116.581C128.754 31.7192 138.614 41.5119 138.614 53.6023V134.023C138.614 146.113 128.754 155.906 116.581 155.906H43.3201C31.1467 155.906 21.2867 146.113 21.2867 134.023V53.6023C21.2867 41.5119 31.1467 31.7192 43.3201 31.7192Z" fill="url(#paint0_linear_539_1713)"/>
<path fill-rule="evenodd" clip-rule="evenodd" d="M43.3201 157H116.581C129.36 157 139.716 146.715 139.716 134.023V53.6025C139.716 40.9103 129.36 30.6252 116.581 30.6252H43.3201C30.5408 30.6252 20.1851 40.9103 20.1851 53.6025V134.023C20.1851 146.715 30.5408 157 43.3201 157ZM22.3884 53.6024C22.3884 42.1138 31.7526 32.8135 43.3201 32.8135H116.581C128.148 32.8135 137.513 42.1138 137.513 53.6024V134.023C137.513 145.511 128.148 154.812 116.581 154.812H43.3201C31.7526 154.812 22.3884 145.511 22.3884 134.023V53.6024Z" fill="#E9F0F9"/>
<path d="M72.4942 8.3618C74.2263 6.16867 76.7922 4.76193 79.6063 4.46261C82.4671 4.15649 85.3413 4.95607 87.6207 6.69211L125.092 34.4534C127.418 36.1293 128.993 38.6259 129.483 41.4146C129.965 44.1565 129.296 46.9686 127.629 49.2095L86.6606 102.661C84.9292 104.854 82.364 106.262 79.5504 106.562C76.6889 106.868 73.8138 106.068 71.534 104.331L34.063 76.5695C29.2382 73.1779 28.0888 66.6094 31.4892 61.8614L72.4942 8.3618Z" fill="#ACC3D9" stroke="#E9F0F9" stroke-width="2"/>
<path d="M39.2739 80.202L43.9238 83.647L97.4842 13.7661L92.8343 10.3211L39.2739 80.202Z" fill="#E9F0F9"/>
<path d="M93.172 60.3279L90.276 64.1064L95.8008 74.5629L98.7688 70.6904L93.172 60.3279Z" fill="#4479D9"/>
<path d="M99.7515 51.4285L96.7842 55.2999L102.38 65.6635L105.42 61.6977L99.7515 51.4285Z" fill="#4479D9"/>
<path d="M111.897 34.7312L102.887 46.4863L108.519 56.8032L117.377 45.2455L111.897 34.7312Z" fill="#E9F0F9"/>
<path fill-rule="evenodd" clip-rule="evenodd" d="M43.3201 48.6787H129.25C141.424 48.6787 151.283 58.4714 151.283 70.5618V134.023C151.283 146.113 141.424 155.906 129.25 155.906H43.3201C31.1467 155.906 21.2867 146.113 21.2867 134.023V70.5618C21.2867 58.4714 31.1467 48.6787 43.3201 48.6787Z" fill="url(#paint1_linear_539_1713)"/>
<path fill-rule="evenodd" clip-rule="evenodd" d="M43.3201 157H129.25C142.029 157 152.385 146.715 152.385 134.023V70.5618C152.385 57.8696 142.029 47.5846 129.25 47.5846H43.3201C30.5408 47.5846 20.1851 57.8696 20.1851 70.5618V134.023C20.1851 146.715 30.5408 157 43.3201 157ZM22.3884 70.5619C22.3884 59.0733 31.7526 49.7729 43.3201 49.7729H129.25C140.818 49.7729 150.182 59.0733 150.182 70.5619V134.023C150.182 145.511 140.818 154.812 129.25 154.812H43.3201C31.7526 154.812 22.3884 145.511 22.3884 134.023V70.5619Z" fill="#E8EFF8"/>
<path fill-rule="evenodd" clip-rule="evenodd" d="M34.9475 67.5529H40.4558C40.8965 67.5529 41.2821 67.1699 41.2821 66.7322C41.2821 66.2946 40.8965 65.9116 40.4558 65.9116H34.9475C34.5068 65.9116 34.1212 66.2946 34.1212 66.7322C34.1212 67.1699 34.5068 67.5529 34.9475 67.5529ZM128.038 68.3188C128.148 68.3735 128.314 68.4282 128.424 68.4282C128.754 68.4282 129.03 68.2641 129.195 67.9905C129.415 67.6076 129.25 67.1152 128.865 66.8964C127.598 66.2399 126.221 65.9116 124.843 65.9116H123.081C122.64 65.9116 122.255 66.2946 122.255 66.7322C122.255 67.1699 122.64 67.5529 123.081 67.5529H124.843C125.945 67.5529 127.047 67.8264 128.038 68.3188ZM132.555 77.8381C132.115 77.8381 131.729 77.4551 131.729 77.0174V74.3915C131.729 73.5162 131.564 72.6955 131.288 71.9296C131.123 71.492 131.343 71.0543 131.784 70.8902C132.225 70.7261 132.665 70.9449 132.831 71.3826C133.216 72.3673 133.382 73.4067 133.382 74.4462V77.0722C133.382 77.4551 132.996 77.8381 132.555 77.8381ZM131.729 87.9586C131.729 88.3963 132.115 88.7792 132.555 88.7792C132.996 88.7792 133.381 88.3963 133.381 87.9586V82.4879C133.381 82.0502 132.996 81.6672 132.555 81.6672C132.115 81.6672 131.729 82.0502 131.729 82.4879V87.9586ZM132.555 99.7209C132.115 99.7209 131.729 99.3379 131.729 98.9003V93.4295C131.729 92.9918 132.115 92.6089 132.555 92.6089C132.996 92.6089 133.381 92.9918 133.381 93.4295V98.9003C133.381 99.3379 132.996 99.7209 132.555 99.7209ZM131.729 109.842C131.729 110.279 132.115 110.662 132.555 110.662C132.996 110.662 133.381 110.279 133.381 109.842V104.371C133.381 103.933 132.996 103.55 132.555 103.55C132.115 103.55 131.729 103.933 131.729 104.371V109.842ZM132.555 121.604C132.115 121.604 131.729 121.221 131.729 120.783V115.313C131.729 114.875 132.115 114.492 132.555 114.492C132.996 114.492 133.381 114.875 133.381 115.313V120.783C133.381 121.221 132.996 121.604 132.555 121.604ZM131.839 132.436C131.949 132.491 132.004 132.491 132.114 132.491C132.445 132.491 132.775 132.272 132.886 131.944C133.216 131.068 133.381 130.084 133.381 129.099V126.254C133.381 125.817 132.996 125.434 132.555 125.434C132.114 125.434 131.729 125.817 131.729 126.254V129.099C131.729 129.865 131.619 130.631 131.343 131.397C131.178 131.834 131.398 132.272 131.839 132.436ZM123.301 137.579H124.844C126.331 137.579 127.763 137.196 128.975 136.484C129.415 136.266 129.526 135.773 129.305 135.39C129.085 134.953 128.589 134.843 128.204 135.062C127.212 135.609 126.055 135.937 124.844 135.937H123.301C122.861 135.937 122.475 136.32 122.475 136.758C122.475 137.196 122.861 137.579 123.301 137.579ZM112.284 137.579H117.793C118.233 137.579 118.619 137.196 118.619 136.758C118.619 136.32 118.233 135.937 117.793 135.937H112.284C111.844 135.937 111.458 136.32 111.458 136.758C111.458 137.196 111.844 137.579 112.284 137.579ZM106.776 137.579H101.268C100.827 137.579 100.442 137.196 100.442 136.758C100.442 136.32 100.827 135.937 101.268 135.937H106.776C107.217 135.937 107.602 136.32 107.602 136.758C107.602 137.196 107.217 137.579 106.776 137.579ZM90.2511 137.579H95.7595C96.2001 137.579 96.5857 137.196 96.5857 136.758C96.5857 136.32 96.2001 135.937 95.7595 135.937H90.2511C89.8105 135.937 89.4249 136.32 89.4249 136.758C89.4249 137.196 89.8105 137.579 90.2511 137.579ZM84.7429 137.579H79.2345C78.7939 137.579 78.4083 137.196 78.4083 136.758C78.4083 136.32 78.7939 135.937 79.2345 135.937H84.7429C85.1835 135.937 85.5691 136.32 85.5691 136.758C85.5691 137.196 85.1835 137.579 84.7429 137.579ZM68.2179 137.579H73.7262C74.1669 137.579 74.5525 137.196 74.5525 136.758C74.5525 136.32 74.1669 135.937 73.7262 135.937H68.2179C67.7772 135.937 67.3917 136.32 67.3917 136.758C67.3917 137.196 67.7772 137.579 68.2179 137.579ZM62.7095 137.579H57.2012C56.7605 137.579 56.3749 137.196 56.3749 136.758C56.3749 136.32 56.7605 135.937 57.2012 135.937H62.7095C63.1502 135.937 63.5357 136.32 63.5357 136.758C63.5357 137.196 63.1502 137.579 62.7095 137.579ZM46.1845 137.579H51.6928C52.1335 137.579 52.5191 137.196 52.5191 136.758C52.5191 136.32 52.1335 135.937 51.6928 135.937H46.1845C45.7438 135.937 45.3582 136.32 45.3582 136.758C45.3582 137.196 45.7438 137.579 46.1845 137.579ZM40.6761 137.579H35.1678C34.7271 137.579 34.3415 137.196 34.3415 136.758C34.3415 136.32 34.7271 135.937 35.1678 135.937H40.6761C41.1168 135.937 41.5024 136.32 41.5024 136.758C41.5024 137.196 41.1168 137.579 40.6761 137.579ZM117.572 67.5529H112.064C111.623 67.5529 111.238 67.1699 111.238 66.7322C111.238 66.2946 111.623 65.9116 112.064 65.9116H117.572C118.013 65.9116 118.399 66.2946 118.399 66.7322C118.399 67.1699 118.013 67.5529 117.572 67.5529ZM101.048 67.5529H106.556C106.997 67.5529 107.382 67.1699 107.382 66.7322C107.382 66.2946 106.997 65.9116 106.556 65.9116H101.048C100.607 65.9116 100.221 66.2946 100.221 66.7322C100.221 67.1699 100.607 67.5529 101.048 67.5529ZM95.5392 67.5529H90.0309C89.5902 67.5529 89.2046 67.1699 89.2046 66.7322C89.2046 66.2946 89.5902 65.9116 90.0309 65.9116H95.5392C95.9799 65.9116 96.3655 66.2946 96.3655 66.7322C96.3655 67.1699 95.9799 67.5529 95.5392 67.5529ZM79.0142 67.5529H84.5225C84.9632 67.5529 85.3488 67.1699 85.3488 66.7322C85.3488 66.2946 84.9632 65.9116 84.5225 65.9116H79.0142C78.5735 65.9116 78.1879 66.2946 78.1879 66.7322C78.1879 67.1699 78.5735 67.5529 79.0142 67.5529ZM73.5058 67.5529H67.9974C67.5568 67.5529 67.1712 67.1699 67.1712 66.7322C67.1712 66.2946 67.5568 65.9116 67.9974 65.9116H73.5058C73.9464 65.9116 74.332 66.2946 74.332 66.7322C74.332 67.1699 73.9464 67.5529 73.5058 67.5529ZM56.9808 67.5529H62.4892C62.9298 67.5529 63.3154 67.1699 63.3154 66.7322C63.3154 66.2946 62.9298 65.9116 62.4892 65.9116H56.9808C56.5402 65.9116 56.1546 66.2946 56.1546 66.7322C56.1546 67.1699 56.5402 67.5529 56.9808 67.5529ZM51.4725 67.5529H45.9641C45.5235 67.5529 45.1379 67.1699 45.1379 66.7322C45.1379 66.2946 45.5235 65.9116 45.9641 65.9116H51.4725C51.9131 65.9116 52.2987 66.2946 52.2987 66.7322C52.2987 67.1699 51.9131 67.5529 51.4725 67.5529Z" fill="#B1C4D8"/>
<path fill-rule="evenodd" clip-rule="evenodd" d="M122.64 90.2566H152.385C155.415 90.2566 157.894 92.7184 157.894 95.7274V108.857C157.894 111.866 155.415 114.328 152.385 114.328H122.64C119.611 114.328 117.132 111.866 117.132 108.857V95.7274C117.132 92.7184 119.611 90.2566 122.64 90.2566Z" fill="url(#paint2_linear_539_1713)"/>
<path fill-rule="evenodd" clip-rule="evenodd" d="M122.64 115.422H152.385C156.021 115.422 158.995 112.468 158.995 108.857V95.7274C158.995 92.1167 156.021 89.1625 152.385 89.1625H122.64C119.005 89.1625 116.03 92.1167 116.03 95.7274V108.857C116.03 112.468 119.005 115.422 122.64 115.422ZM118.233 95.7273C118.233 93.3202 120.216 91.3507 122.64 91.3507H152.385C154.809 91.3507 156.792 93.3202 156.792 95.7273V108.857C156.792 111.264 154.809 113.234 152.385 113.234H122.64C120.216 113.234 118.233 111.264 118.233 108.857V95.7273Z" fill="#B1C4D8"/>
<path fill-rule="evenodd" clip-rule="evenodd" d="M118.234 108.857H156.792C156.792 111.264 154.809 113.234 152.385 113.234H122.64C120.217 113.234 118.234 111.264 118.234 108.857Z" fill="#A2B5C8"/>
<ellipse cx="129.024" cy="102.019" rx="4.13125" ry="4.10308" fill="#A2B5C8"/>
<ellipse cx="127.873" cy="102.019" rx="4.13125" ry="4.10308" fill="white"/>
<path d="M35.9568 160C54.7131 160 69.9135 144.775 69.9135 126C69.9135 107.225 54.7131 92 35.9568 92C17.2004 92 2 107.225 2 126C2 144.775 17.2004 160 35.9568 160Z" fill="#FF2F2F" stroke="white" stroke-width="4"/>
<path d="M40.1348 142.152V137.054C40.1348 136.389 39.5812 135.835 38.9175 135.835H33.9371C33.2729 135.835 32.7199 136.389 32.7199 137.054V142.041C32.7199 142.706 33.2732 143.26 33.9371 143.26H38.9173C39.5812 143.371 40.1345 142.817 40.1345 142.152L40.1348 142.152Z" fill="white"/>
<path d="M41.3521 109.46C41.3521 108.684 40.7988 108.13 40.1349 108.13H32.6088C31.9448 108.13 31.3915 108.795 31.3915 109.46L32.4981 130.848C32.4981 131.513 33.0516 132.067 33.7156 132.067H38.9171C39.5811 132.067 40.1343 131.513 40.1343 130.848L41.3518 109.46H41.3521Z" fill="white"/>
<defs>
<linearGradient id="paint0_linear_539_1713" x1="144.439" y1="156.192" x2="31.8341" y2="55.4649" gradientUnits="userSpaceOnUse">
<stop stop-color="#DDE6F8"/>
<stop offset="1" stop-color="#B7CBDD"/>
</linearGradient>
<linearGradient id="paint1_linear_539_1713" x1="2.04577" y1="91.9851" x2="63.9429" y2="182.326" gradientUnits="userSpaceOnUse">
<stop stop-color="#E8EFF8"/>
<stop offset="1" stop-color="#C4D2E0"/>
</linearGradient>
<linearGradient id="paint2_linear_539_1713" x1="111.099" y1="99.9784" x2="122.882" y2="124" gradientUnits="userSpaceOnUse">
<stop stop-color="#E8EFF8"/>
<stop offset="1" stop-color="#C4D2E0"/>
</linearGradient>
</defs>
</svg>
